<svg xmlns="http://www.w3.org/2000/svg" width="900" height="900" viewBox="0 0 900 900" role="img" aria-label="Broad Behavioral Radar">
  <rect width="100%" height="100%" fill="#f8fafc"/>
  <text x="450.0" y="58" text-anchor="middle" font-family="Inter, Segoe UI, Arial" font-size="34" font-weight="700" fill="#0f172a">Broad Behavioral Radar</text>
  <text x="450.0" y="92" text-anchor="middle" font-family="Inter, Segoe UI, Arial" font-size="15" fill="#64748b">Scores 0-10 from aggregate email traces; broad inference, not diagnosis.</text>
  <g>
    <polygon points="450.0,390.0 492.4,407.6 510.0,450.0 492.4,492.4 450.0,510.0 407.6,492.4 390.0,450.0 407.6,407.6" fill="none" stroke="#d7dee8" stroke-width="1"/><polygon points="450.0,330.0 534.9,365.1 570.0,450.0 534.9,534.9 450.0,570.0 365.1,534.9 330.0,450.0 365.1,365.1" fill="none" stroke="#d7dee8" stroke-width="1"/><polygon points="450.0,270.0 577.3,322.7 630.0,450.0 577.3,577.3 450.0,630.0 322.7,577.3 270.0,450.0 322.7,322.7" fill="none" stroke="#d7dee8" stroke-width="1"/><polygon points="450.0,210.0 619.7,280.3 690.0,450.0 619.7,619.7 450.0,690.0 280.3,619.7 210.0,450.0 280.3,280.3" fill="none" stroke="#d7dee8" stroke-width="1"/><polygon points="450.0,150.0 662.1,237.9 750.0,450.0 662.1,662.1 450.0,750.0 237.9,662.1 150.0,450.0 237.9,237.9" fill="none" stroke="#d7dee8" stroke-width="1"/>
    <line x1="450.0" y1="450.0" x2="450.0" y2="150.0" stroke="#c1cad7" stroke-width="1"/><line x1="450.0" y1="450.0" x2="662.1" y2="237.9" stroke="#c1cad7" stroke-width="1"/><line x1="450.0" y1="450.0" x2="750.0" y2="450.0" stroke="#c1cad7" stroke-width="1"/><line x1="450.0" y1="450.0" x2="662.1" y2="662.1" stroke="#c1cad7" stroke-width="1"/><line x1="450.0" y1="450.0" x2="450.0" y2="750.0" stroke="#c1cad7" stroke-width="1"/><line x1="450.0" y1="450.0" x2="237.9" y2="662.1" stroke="#c1cad7" stroke-width="1"/><line x1="450.0" y1="450.0" x2="150.0" y2="450.0" stroke="#c1cad7" stroke-width="1"/><line x1="450.0" y1="450.0" x2="237.9" y2="237.9" stroke="#c1cad7" stroke-width="1"/>
    <polygon points="450.0,174.0 657.9,242.1 696.0,450.0 573.0,573.0 450.0,738.0 346.1,553.9 303.0,450.0 297.3,297.3" fill="#14b8a6" fill-opacity="0.28" stroke="#0f766e" stroke-width="4"/>
    <circle cx="450.0" cy="174.0" r="5" fill="#0f766e"/><circle cx="657.9" cy="242.1" r="5" fill="#0f766e"/><circle cx="696.0" cy="450.0" r="5" fill="#0f766e"/><circle cx="573.0" cy="573.0" r="5" fill="#0f766e"/><circle cx="450.0" cy="738.0" r="5" fill="#0f766e"/><circle cx="346.1" cy="553.9" r="5" fill="#0f766e"/><circle cx="303.0" cy="450.0" r="5" fill="#0f766e"/><circle cx="297.3" cy="297.3" r="5" fill="#0f766e"/>
    <text x="450.0" y="109.5" text-anchor="middle" dominant-baseline="middle" font-family="Inter, Segoe UI, Arial" font-size="18" fill="#1f2937">Systems Builder (9.2)</text><text x="690.8" y="209.2" text-anchor="start" dominant-baseline="middle" font-family="Inter, Segoe UI, Arial" font-size="18" fill="#1f2937">Problem Solver (9.8)</text><text x="790.5" y="450.0" text-anchor="start" dominant-baseline="middle" font-family="Inter, Segoe UI, Arial" font-size="18" fill="#1f2937">Administrative Operator (8.2)</text><text x="690.8" y="690.8" text-anchor="start" dominant-baseline="middle" font-family="Inter, Segoe UI, Arial" font-size="18" fill="#1f2937">Explorer Builder (5.8)</text><text x="450.0" y="790.5" text-anchor="middle" dominant-baseline="middle" font-family="Inter, Segoe UI, Arial" font-size="18" fill="#1f2937">Social Connector (9.6)</text><text x="209.2" y="690.8" text-anchor="end" dominant-baseline="middle" font-family="Inter, Segoe UI, Arial" font-size="18" fill="#1f2937">Conflict Navigator (4.9)</text><text x="109.5" y="450.0" text-anchor="end" dominant-baseline="middle" font-family="Inter, Segoe UI, Arial" font-size="18" fill="#1f2937">Care Load (4.9)</text><text x="209.2" y="209.2" text-anchor="end" dominant-baseline="middle" font-family="Inter, Segoe UI, Arial" font-size="18" fill="#1f2937">Follow Through (7.2)</text>
  </g>
</svg>
