<svg xmlns="http://www.w3.org/2000/svg" width="1200" height="1500" viewBox="0 0 1200 1500" role="img" aria-label="Behavioral Radar">
  <rect width="100%" height="100%" fill="#f8fafc"/>
  <rect x="34" y="34" width="1132" height="1432" rx="42" fill="#ffffff" stroke="#dbe4ee" stroke-width="2"/>
  <text x="600.0" y="102" text-anchor="middle" font-family="Inter, Segoe UI, Arial" font-size="64" font-weight="850" fill="#0f172a">Behavioral Radar</text>
  <text x="600.0" y="154" text-anchor="middle" font-family="Inter, Segoe UI, Arial" font-size="31" font-weight="500" fill="#475569">Broad aggregate signals from email traces</text>
  <rect x="300" y="184" width="600" height="48" rx="24" fill="#ecfeff" stroke="#99f6e4" stroke-width="2"/>
  <text x="600.0" y="218" text-anchor="middle" font-family="Inter, Segoe UI, Arial" font-size="25" font-weight="750" fill="#115e59">0-10 scores from aggregate email traces</text>
  <g>
    <polygon points="600.0,523.0 636.8,538.2 652.0,575.0 636.8,611.8 600.0,627.0 563.2,611.8 548.0,575.0 563.2,538.2" fill="none" stroke="#cbd5e1" stroke-width="2"/><polygon points="600.0,471.0 673.5,501.5 704.0,575.0 673.5,648.5 600.0,679.0 526.5,648.5 496.0,575.0 526.5,501.5" fill="none" stroke="#cbd5e1" stroke-width="2"/><polygon points="600.0,419.0 710.3,464.7 756.0,575.0 710.3,685.3 600.0,731.0 489.7,685.3 444.0,575.0 489.7,464.7" fill="none" stroke="#cbd5e1" stroke-width="2"/><polygon points="600.0,367.0 747.1,427.9 808.0,575.0 747.1,722.1 600.0,783.0 452.9,722.1 392.0,575.0 452.9,427.9" fill="none" stroke="#cbd5e1" stroke-width="2"/><polygon points="600.0,315.0 783.8,391.2 860.0,575.0 783.8,758.8 600.0,835.0 416.2,758.8 340.0,575.0 416.2,391.2" fill="none" stroke="#cbd5e1" stroke-width="2"/>
    <line x1="600.0" y1="575" x2="600.0" y2="315.0" stroke="#94a3b8" stroke-width="2"/><line x1="600.0" y1="575" x2="783.8" y2="391.2" stroke="#94a3b8" stroke-width="2"/><line x1="600.0" y1="575" x2="860.0" y2="575.0" stroke="#94a3b8" stroke-width="2"/><line x1="600.0" y1="575" x2="783.8" y2="758.8" stroke="#94a3b8" stroke-width="2"/><line x1="600.0" y1="575" x2="600.0" y2="835.0" stroke="#94a3b8" stroke-width="2"/><line x1="600.0" y1="575" x2="416.2" y2="758.8" stroke="#94a3b8" stroke-width="2"/><line x1="600.0" y1="575" x2="340.0" y2="575.0" stroke="#94a3b8" stroke-width="2"/><line x1="600.0" y1="575" x2="416.2" y2="391.2" stroke="#94a3b8" stroke-width="2"/>
    <polygon points="600.0,335.8 780.2,394.8 813.2,575.0 706.6,681.6 600.0,824.6 509.9,665.1 472.6,575.0 467.6,442.6" fill="#14b8a6" fill-opacity="0.34" stroke="#0f766e" stroke-width="9"/>
    <circle cx="600.0" cy="335.8" r="10" fill="#0f766e"/><circle cx="780.2" cy="394.8" r="10" fill="#0f766e"/><circle cx="813.2" cy="575.0" r="10" fill="#0f766e"/><circle cx="706.6" cy="681.6" r="10" fill="#0f766e"/><circle cx="600.0" cy="824.6" r="10" fill="#0f766e"/><circle cx="509.9" cy="665.1" r="10" fill="#0f766e"/><circle cx="472.6" cy="575.0" r="10" fill="#0f766e"/><circle cx="467.6" cy="442.6" r="10" fill="#0f766e"/>
    <circle cx="600.0" cy="268.0" r="27" fill="#0f172a"/><text x="600.0" y="269.0" text-anchor="middle" dominant-baseline="middle" font-family="Inter, Segoe UI, Arial" font-size="28" font-weight="800" fill="#ffffff">1</text><circle cx="817.1" cy="357.9" r="27" fill="#0f172a"/><text x="817.1" y="358.9" text-anchor="middle" dominant-baseline="middle" font-family="Inter, Segoe UI, Arial" font-size="28" font-weight="800" fill="#ffffff">2</text><circle cx="907.0" cy="575.0" r="27" fill="#0f172a"/><text x="907.0" y="576.0" text-anchor="middle" dominant-baseline="middle" font-family="Inter, Segoe UI, Arial" font-size="28" font-weight="800" fill="#ffffff">3</text><circle cx="817.1" cy="792.1" r="27" fill="#0f172a"/><text x="817.1" y="793.1" text-anchor="middle" dominant-baseline="middle" font-family="Inter, Segoe UI, Arial" font-size="28" font-weight="800" fill="#ffffff">4</text><circle cx="600.0" cy="882.0" r="27" fill="#0f172a"/><text x="600.0" y="883.0" text-anchor="middle" dominant-baseline="middle" font-family="Inter, Segoe UI, Arial" font-size="28" font-weight="800" fill="#ffffff">5</text><circle cx="382.9" cy="792.1" r="27" fill="#0f172a"/><text x="382.9" y="793.1" text-anchor="middle" dominant-baseline="middle" font-family="Inter, Segoe UI, Arial" font-size="28" font-weight="800" fill="#ffffff">6</text><circle cx="293.0" cy="575.0" r="27" fill="#0f172a"/><text x="293.0" y="576.0" text-anchor="middle" dominant-baseline="middle" font-family="Inter, Segoe UI, Arial" font-size="28" font-weight="800" fill="#ffffff">7</text><circle cx="382.9" cy="357.9" r="27" fill="#0f172a"/><text x="382.9" y="358.9" text-anchor="middle" dominant-baseline="middle" font-family="Inter, Segoe UI, Arial" font-size="28" font-weight="800" fill="#ffffff">8</text>
  </g>
  <g>
    <rect x="70" y="910" width="510" height="112" rx="24" fill="#ffffff" stroke="#dbe4ee" stroke-width="2"/><circle cx="116" cy="971" r="28" fill="#0f172a"/><text x="116" y="972" text-anchor="middle" dominant-baseline="middle" font-family="Inter, Segoe UI, Arial" font-size="28" font-weight="800" fill="#ffffff">1</text><text x="158" y="959" font-family="Inter, Segoe UI, Arial" font-size="31" font-weight="750" fill="#0f172a">Systems Builder</text><text x="538" y="987" text-anchor="end" font-family="Inter, Segoe UI, Arial" font-size="58" font-weight="850" fill="#0f766e">9.2</text><rect x="70" y="1042" width="510" height="112" rx="24" fill="#ffffff" stroke="#dbe4ee" stroke-width="2"/><circle cx="116" cy="1103" r="28" fill="#0f172a"/><text x="116" y="1104" text-anchor="middle" dominant-baseline="middle" font-family="Inter, Segoe UI, Arial" font-size="28" font-weight="800" fill="#ffffff">2</text><text x="158" y="1091" font-family="Inter, Segoe UI, Arial" font-size="31" font-weight="750" fill="#0f172a">Problem Solver</text><text x="538" y="1119" text-anchor="end" font-family="Inter, Segoe UI, Arial" font-size="58" font-weight="850" fill="#0f766e">9.8</text><rect x="70" y="1174" width="510" height="112" rx="24" fill="#ffffff" stroke="#dbe4ee" stroke-width="2"/><circle cx="116" cy="1235" r="28" fill="#0f172a"/><text x="116" y="1236" text-anchor="middle" dominant-baseline="middle" font-family="Inter, Segoe UI, Arial" font-size="28" font-weight="800" fill="#ffffff">3</text><text x="158" y="1223" font-family="Inter, Segoe UI, Arial" font-size="31" font-weight="750" fill="#0f172a">Admin Operator</text><text x="538" y="1251" text-anchor="end" font-family="Inter, Segoe UI, Arial" font-size="58" font-weight="850" fill="#0f766e">8.2</text><rect x="70" y="1306" width="510" height="112" rx="24" fill="#ffffff" stroke="#dbe4ee" stroke-width="2"/><circle cx="116" cy="1367" r="28" fill="#0f172a"/><text x="116" y="1368" text-anchor="middle" dominant-baseline="middle" font-family="Inter, Segoe UI, Arial" font-size="28" font-weight="800" fill="#ffffff">4</text><text x="158" y="1355" font-family="Inter, Segoe UI, Arial" font-size="31" font-weight="750" fill="#0f172a">Explorer Builder</text><text x="538" y="1383" text-anchor="end" font-family="Inter, Segoe UI, Arial" font-size="58" font-weight="850" fill="#0f766e">5.8</text><rect x="620" y="910" width="510" height="112" rx="24" fill="#ffffff" stroke="#dbe4ee" stroke-width="2"/><circle cx="666" cy="971" r="28" fill="#0f172a"/><text x="666" y="972" text-anchor="middle" dominant-baseline="middle" font-family="Inter, Segoe UI, Arial" font-size="28" font-weight="800" fill="#ffffff">5</text><text x="708" y="959" font-family="Inter, Segoe UI, Arial" font-size="31" font-weight="750" fill="#0f172a">Social Connector</text><text x="1088" y="987" text-anchor="end" font-family="Inter, Segoe UI, Arial" font-size="58" font-weight="850" fill="#0f766e">9.6</text><rect x="620" y="1042" width="510" height="112" rx="24" fill="#ffffff" stroke="#dbe4ee" stroke-width="2"/><circle cx="666" cy="1103" r="28" fill="#0f172a"/><text x="666" y="1104" text-anchor="middle" dominant-baseline="middle" font-family="Inter, Segoe UI, Arial" font-size="28" font-weight="800" fill="#ffffff">6</text><text x="708" y="1091" font-family="Inter, Segoe UI, Arial" font-size="31" font-weight="750" fill="#0f172a">Conflict Navigator</text><text x="1088" y="1119" text-anchor="end" font-family="Inter, Segoe UI, Arial" font-size="58" font-weight="850" fill="#0f766e">4.9</text><rect x="620" y="1174" width="510" height="112" rx="24" fill="#ffffff" stroke="#dbe4ee" stroke-width="2"/><circle cx="666" cy="1235" r="28" fill="#0f172a"/><text x="666" y="1236" text-anchor="middle" dominant-baseline="middle" font-family="Inter, Segoe UI, Arial" font-size="28" font-weight="800" fill="#ffffff">7</text><text x="708" y="1223" font-family="Inter, Segoe UI, Arial" font-size="31" font-weight="750" fill="#0f172a">Care Load</text><text x="1088" y="1251" text-anchor="end" font-family="Inter, Segoe UI, Arial" font-size="58" font-weight="850" fill="#0f766e">4.9</text><rect x="620" y="1306" width="510" height="112" rx="24" fill="#ffffff" stroke="#dbe4ee" stroke-width="2"/><circle cx="666" cy="1367" r="28" fill="#0f172a"/><text x="666" y="1368" text-anchor="middle" dominant-baseline="middle" font-family="Inter, Segoe UI, Arial" font-size="28" font-weight="800" fill="#ffffff">8</text><text x="708" y="1355" font-family="Inter, Segoe UI, Arial" font-size="31" font-weight="750" fill="#0f172a">Follow Through</text><text x="1088" y="1383" text-anchor="end" font-family="Inter, Segoe UI, Arial" font-size="58" font-weight="850" fill="#0f766e">7.2</text>
  </g>
  <text x="600.0" y="1470" text-anchor="middle" font-family="Inter, Segoe UI, Arial" font-size="22" font-weight="550" fill="#64748b">Generated locally from email metadata and excerpts. Broad inference, not diagnosis.</text>
</svg>
